  0
SECTION
  2
HEADER
  0
ENDSEC
  0
SECTION
  2
TABLES
  0
ENDSEC
  0
SECTION
  2
BLOCKS
  0
ENDSEC
  0
SECTION
  2
ENTITIES
  0
LINE
  8
Border_and_Title
 62
7
 10
-32.000
 20
-26.000
 30
0.0
 11
32.000
 21
-26.000
 31
0.0
  0
LINE
  8
Border_and_Title
 62
7
 10
32.000
 20
-26.000
 30
0.0
 11
32.000
 21
26.000
 31
0.0
  0
LINE
  8
Border_and_Title
 62
7
 10
32.000
 20
26.000
 30
0.0
 11
-32.000
 21
26.000
 31
0.0
  0
LINE
  8
Border_and_Title
 62
7
 10
-32.000
 20
26.000
 30
0.0
 11
-32.000
 21
-26.000
 31
0.0
  0
LINE
  8
Border_and_Title
 62
7
 10
-31.500
 20
-25.500
 30
0.0
 11
31.500
 21
-25.500
 31
0.0
  0
LINE
  8
Border_and_Title
 62
7
 10
31.500
 20
-25.500
 30
0.0
 11
31.500
 21
25.500
 31
0.0
  0
LINE
  8
Border_and_Title
 62
7
 10
31.500
 20
25.500
 30
0.0
 11
-31.500
 21
25.500
 31
0.0
  0
LINE
  8
Border_and_Title
 62
7
 10
-31.500
 20
25.500
 30
0.0
 11
-31.500
 21
-25.500
 31
0.0
  0
TEXT
  8
Title_Block
 62
7
 10
-30.000
 20
23.500
 30
0.0
 40
0.600
  1
TYPICAL FLOOR PLAN (FLOORS 1 - 10)
  0
TEXT
  8
Title_Block
 62
7
 10
-30.000
 20
22.500
 30
0.0
 40
0.400
  1
PROJECT: 10-STOREY PREMIUM RESIDENTIAL BLOCK
  0
TEXT
  8
Title_Block
 62
7
 10
-30.000
 20
21.500
 30
0.0
 40
0.350
  1
CONFIG: 4 FLATS PER FLOOR (2 x 2BHK @ ~1200 SQFT, 2 x 3BHK @ ~1500 SQFT)
  0
TEXT
  8
Title_Block
 62
7
 10
-30.000
 20
20.500
 30
0.0
 40
0.300
  1
CORRIDOR WIDTH: 2.0m | SCALE: 1:100 (METERS) | DATE: 2026-06-04
  0
LINE
  8
Common_Area_Walls
 62
9
 10
-4.000
 20
-5.000
 30
0.0
 11
4.000
 21
-5.000
 31
0.0
  0
LINE
  8
Common_Area_Walls
 62
9
 10
4.000
 20
-5.000
 30
0.0
 11
4.000
 21
5.000
 31
0.0
  0
LINE
  8
Common_Area_Walls
 62
9
 10
4.000
 20
5.000
 30
0.0
 11
-4.000
 21
5.000
 31
0.0
  0
LINE
  8
Common_Area_Walls
 62
9
 10
-4.000
 20
5.000
 30
0.0
 11
-4.000
 21
-5.000
 31
0.0
  0
TEXT
  8
Common_Labels
 62
9
 10
-1.200
 20
0.000
 30
0.0
 40
0.350
  1
CENTRAL LOBBY
  0
LINE
  8
Lifts_Stairs
 62
9
 10
-3.500
 20
1.000
 30
0.0
 11
-1.500
 21
1.000
 31
0.0
  0
LINE
  8
Lifts_Stairs
 62
9
 10
-1.500
 20
1.000
 30
0.0
 11
-1.500
 21
4.000
 31
0.0
  0
LINE
  8
Lifts_Stairs
 62
9
 10
-1.500
 20
4.000
 30
0.0
 11
-3.500
 21
4.000
 31
0.0
  0
LINE
  8
Lifts_Stairs
 62
9
 10
-3.500
 20
4.000
 30
0.0
 11
-3.500
 21
1.000
 31
0.0
  0
LINE
  8
Lifts_Stairs
 62
9
 10
-3.500
 20
1.000
 30
0.0
 11
-1.500
 21
4.000
 31
0.0
  0
LINE
  8
Lifts_Stairs
 62
9
 10
-3.500
 20
4.000
 30
0.0
 11
-1.500
 21
1.000
 31
0.0
  0
TEXT
  8
Lifts_Stairs
 62
9
 10
-3.000
 20
2.300
 30
0.0
 40
0.200
  1
LIFT 1
  0
LINE
  8
Lifts_Stairs
 62
9
 10
-3.500
 20
-4.000
 30
0.0
 11
-1.500
 21
-4.000
 31
0.0
  0
LINE
  8
Lifts_Stairs
 62
9
 10
-1.500
 20
-4.000
 30
0.0
 11
-1.500
 21
-1.000
 31
0.0
  0
LINE
  8
Lifts_Stairs
 62
9
 10
-1.500
 20
-1.000
 30
0.0
 11
-3.500
 21
-1.000
 31
0.0
  0
LINE
  8
Lifts_Stairs
 62
9
 10
-3.500
 20
-1.000
 30
0.0
 11
-3.500
 21
-4.000
 31
0.0
  0
LINE
  8
Lifts_Stairs
 62
9
 10
-3.500
 20
-4.000
 30
0.0
 11
-1.500
 21
-1.000
 31
0.0
  0
LINE
  8
Lifts_Stairs
 62
9
 10
-3.500
 20
-1.000
 30
0.0
 11
-1.500
 21
-4.000
 31
0.0
  0
TEXT
  8
Lifts_Stairs
 62
9
 10
-3.000
 20
-2.700
 30
0.0
 40
0.200
  1
LIFT 2
  0
LINE
  8
Lifts_Stairs
 62
9
 10
1.500
 20
-4.000
 30
0.0
 11
3.500
 21
-4.000
 31
0.0
  0
LINE
  8
Lifts_Stairs
 62
9
 10
3.500
 20
-4.000
 30
0.0
 11
3.500
 21
4.000
 31
0.0
  0
LINE
  8
Lifts_Stairs
 62
9
 10
3.500
 20
4.000
 30
0.0
 11
1.500
 21
4.000
 31
0.0
  0
LINE
  8
Lifts_Stairs
 62
9
 10
1.500
 20
4.000
 30
0.0
 11
1.500
 21
-4.000
 31
0.0
  0
TEXT
  8
Lifts_Stairs
 62
9
 10
1.800
 20
0.000
 30
0.0
 40
0.200
  1
MAIN STAIRS
 50
90.000
  0
LINE
  8
Lifts_Stairs
 62
9
 10
1.500
 20
-3.500
 30
0.0
 11
3.500
 21
-3.500
 31
0.0
  0
LINE
  8
Lifts_Stairs
 62
9
 10
1.500
 20
-3.000
 30
0.0
 11
3.500
 21
-3.000
 31
0.0
  0
LINE
  8
Lifts_Stairs
 62
9
 10
1.500
 20
-2.500
 30
0.0
 11
3.500
 21
-2.500
 31
0.0
  0
LINE
  8
Lifts_Stairs
 62
9
 10
1.500
 20
-2.000
 30
0.0
 11
3.500
 21
-2.000
 31
0.0
  0
LINE
  8
Lifts_Stairs
 62
9
 10
1.500
 20
-1.500
 30
0.0
 11
3.500
 21
-1.500
 31
0.0
  0
LINE
  8
Lifts_Stairs
 62
9
 10
1.500
 20
-1.000
 30
0.0
 11
3.500
 21
-1.000
 31
0.0
  0
LINE
  8
Lifts_Stairs
 62
9
 10
1.500
 20
-0.500
 30
0.0
 11
3.500
 21
-0.500
 31
0.0
  0
LINE
  8
Lifts_Stairs
 62
9
 10
1.500
 20
0.000
 30
0.0
 11
3.500
 21
0.000
 31
0.0
  0
LINE
  8
Lifts_Stairs
 62
9
 10
1.500
 20
0.500
 30
0.0
 11
3.500
 21
0.500
 31
0.0
  0
LINE
  8
Lifts_Stairs
 62
9
 10
1.500
 20
1.000
 30
0.0
 11
3.500
 21
1.000
 31
0.0
  0
LINE
  8
Lifts_Stairs
 62
9
 10
1.500
 20
1.500
 30
0.0
 11
3.500
 21
1.500
 31
0.0
  0
LINE
  8
Lifts_Stairs
 62
9
 10
1.500
 20
2.000
 30
0.0
 11
3.500
 21
2.000
 31
0.0
  0
LINE
  8
Lifts_Stairs
 62
9
 10
1.500
 20
2.500
 30
0.0
 11
3.500
 21
2.500
 31
0.0
  0
LINE
  8
Lifts_Stairs
 62
9
 10
1.500
 20
3.000
 30
0.0
 11
3.500
 21
3.000
 31
0.0
  0
LINE
  8
Lifts_Stairs
 62
9
 10
1.500
 20
3.500
 30
0.0
 11
3.500
 21
3.500
 31
0.0
  0
LINE
  8
Lifts_Stairs
 62
9
 10
2.500
 20
-4.000
 30
0.0
 11
2.500
 21
4.000
 31
0.0
  0
LINE
  8
Common_Area_Walls
 62
9
 10
-1.000
 20
-15.000
 30
0.0
 11
1.000
 21
-15.000
 31
0.0
  0
LINE
  8
Common_Area_Walls
 62
9
 10
1.000
 20
-15.000
 30
0.0
 11
1.000
 21
18.000
 31
0.0
  0
LINE
  8
Common_Area_Walls
 62
9
 10
1.000
 20
18.000
 30
0.0
 11
-1.000
 21
18.000
 31
0.0
  0
LINE
  8
Common_Area_Walls
 62
9
 10
-1.000
 20
18.000
 30
0.0
 11
-1.000
 21
-15.000
 31
0.0
  0
TEXT
  8
Common_Labels
 62
9
 10
-0.400
 20
10.000
 30
0.0
 40
0.220
  1
COMMON CORRIDOR (2m WIDE)
 50
90.000
  0
TEXT
  8
Common_Labels
 62
9
 10
-0.400
 20
-10.000
 30
0.0
 40
0.220
  1
COMMON CORRIDOR (2m WIDE)
 50
90.000
  0
LINE
  8
Fire_Stairs
 62
9
 10
-3.500
 20
-20.000
 30
0.0
 11
3.500
 21
-20.000
 31
0.0
  0
LINE
  8
Fire_Stairs
 62
9
 10
3.500
 20
-20.000
 30
0.0
 11
3.500
 21
-15.000
 31
0.0
  0
LINE
  8
Fire_Stairs
 62
9
 10
3.500
 20
-15.000
 30
0.0
 11
-3.500
 21
-15.000
 31
0.0
  0
LINE
  8
Fire_Stairs
 62
9
 10
-3.500
 20
-15.000
 30
0.0
 11
-3.500
 21
-20.000
 31
0.0
  0
TEXT
  8
Common_Labels
 62
9
 10
-1.500
 20
-18.000
 30
0.0
 40
0.250
  1
FIRE EXIT STAIRCASE
  0
LINE
  8
Fire_Stairs
 62
9
 10
-3.000
 20
-20.000
 30
0.0
 11
-3.000
 21
-16.500
 31
0.0
  0
LINE
  8
Fire_Stairs
 62
9
 10
-2.500
 20
-20.000
 30
0.0
 11
-2.500
 21
-16.500
 31
0.0
  0
LINE
  8
Fire_Stairs
 62
9
 10
-2.000
 20
-20.000
 30
0.0
 11
-2.000
 21
-16.500
 31
0.0
  0
LINE
  8
Fire_Stairs
 62
9
 10
-1.500
 20
-20.000
 30
0.0
 11
-1.500
 21
-16.500
 31
0.0
  0
LINE
  8
Fire_Stairs
 62
9
 10
-1.000
 20
-20.000
 30
0.0
 11
-1.000
 21
-16.500
 31
0.0
  0
LINE
  8
Fire_Stairs
 62
9
 10
-0.500
 20
-20.000
 30
0.0
 11
-0.500
 21
-16.500
 31
0.0
  0
LINE
  8
Fire_Stairs
 62
9
 10
0.000
 20
-20.000
 30
0.0
 11
0.000
 21
-16.500
 31
0.0
  0
LINE
  8
Fire_Stairs
 62
9
 10
0.500
 20
-20.000
 30
0.0
 11
0.500
 21
-16.500
 31
0.0
  0
LINE
  8
Fire_Stairs
 62
9
 10
1.000
 20
-20.000
 30
0.0
 11
1.000
 21
-16.500
 31
0.0
  0
LINE
  8
Fire_Stairs
 62
9
 10
1.500
 20
-20.000
 30
0.0
 11
1.500
 21
-16.500
 31
0.0
  0
LINE
  8
Fire_Stairs
 62
9
 10
2.000
 20
-20.000
 30
0.0
 11
2.000
 21
-16.500
 31
0.0
  0
LINE
  8
Fire_Stairs
 62
9
 10
2.500
 20
-20.000
 30
0.0
 11
2.500
 21
-16.500
 31
0.0
  0
LINE
  8
Fire_Stairs
 62
9
 10
3.000
 20
-20.000
 30
0.0
 11
3.000
 21
-16.500
 31
0.0
  0
LINE
  8
Fire_Stairs
 62
9
 10
-3.500
 20
-16.500
 30
0.0
 11
3.500
 21
-16.500
 31
0.0
  0
LINE
  8
Doors_Windows
 62
4
 10
-1.000
 20
-15.000
 30
0.0
 11
-0.364
 21
-15.636
 31
0.0
  0
LINE
  8
Shafts_Ducts
 62
1
 10
3.000
 20
4.000
 30
0.0
 11
4.000
 21
4.000
 31
0.0
  0
LINE
  8
Shafts_Ducts
 62
1
 10
4.000
 20
4.000
 30
0.0
 11
4.000
 21
5.000
 31
0.0
  0
LINE
  8
Shafts_Ducts
 62
1
 10
4.000
 20
5.000
 30
0.0
 11
3.000
 21
5.000
 31
0.0
  0
LINE
  8
Shafts_Ducts
 62
1
 10
3.000
 20
5.000
 30
0.0
 11
3.000
 21
4.000
 31
0.0
  0
LINE
  8
Shafts_Ducts
 62
1
 10
3.000
 20
4.000
 30
0.0
 11
4.000
 21
5.000
 31
0.0
  0
LINE
  8
Shafts_Ducts
 62
1
 10
3.000
 20
5.000
 30
0.0
 11
4.000
 21
4.000
 31
0.0
  0
TEXT
  8
Shafts_Ducts
 62
1
 10
3.100
 20
4.400
 30
0.0
 40
0.180
  1
E-SHAFT
  0
LINE
  8
Shafts_Ducts
 62
1
 10
-4.000
 20
4.000
 30
0.0
 11
-3.000
 21
4.000
 31
0.0
  0
LINE
  8
Shafts_Ducts
 62
1
 10
-3.000
 20
4.000
 30
0.0
 11
-3.000
 21
5.000
 31
0.0
  0
LINE
  8
Shafts_Ducts
 62
1
 10
-3.000
 20
5.000
 30
0.0
 11
-4.000
 21
5.000
 31
0.0
  0
LINE
  8
Shafts_Ducts
 62
1
 10
-4.000
 20
5.000
 30
0.0
 11
-4.000
 21
4.000
 31
0.0
  0
LINE
  8
Shafts_Ducts
 62
1
 10
-4.000
 20
4.000
 30
0.0
 11
-3.000
 21
5.000
 31
0.0
  0
LINE
  8
Shafts_Ducts
 62
1
 10
-4.000
 20
5.000
 30
0.0
 11
-3.000
 21
4.000
 31
0.0
  0
TEXT
  8
Shafts_Ducts
 62
1
 10
-3.900
 20
4.400
 30
0.0
 40
0.180
  1
SERV-DUCT
  0
LINE
  8
Shafts_Ducts
 62
1
 10
-7.800
 20
5.000
 30
0.0
 11
-6.800
 21
5.000
 31
0.0
  0
LINE
  8
Shafts_Ducts
 62
1
 10
-6.800
 20
5.000
 30
0.0
 11
-6.800
 21
6.000
 31
0.0
  0
LINE
  8
Shafts_Ducts
 62
1
 10
-6.800
 20
6.000
 30
0.0
 11
-7.800
 21
6.000
 31
0.0
  0
LINE
  8
Shafts_Ducts
 62
1
 10
-7.800
 20
6.000
 30
0.0
 11
-7.800
 21
5.000
 31
0.0
  0
LINE
  8
Shafts_Ducts
 62
1
 10
-7.800
 20
5.000
 30
0.0
 11
-6.800
 21
6.000
 31
0.0
  0
LINE
  8
Shafts_Ducts
 62
1
 10
-7.800
 20
6.000
 30
0.0
 11
-6.800
 21
5.000
 31
0.0
  0
TEXT
  8
Shafts_Ducts
 62
1
 10
-7.700
 20
5.400
 30
0.0
 40
0.180
  1
P-SHAFT
  0
LINE
  8
Shafts_Ducts
 62
1
 10
-7.800
 20
-6.000
 30
0.0
 11
-6.800
 21
-6.000
 31
0.0
  0
LINE
  8
Shafts_Ducts
 62
1
 10
-6.800
 20
-6.000
 30
0.0
 11
-6.800
 21
-5.000
 31
0.0
  0
LINE
  8
Shafts_Ducts
 62
1
 10
-6.800
 20
-5.000
 30
0.0
 11
-7.800
 21
-5.000
 31
0.0
  0
LINE
  8
Shafts_Ducts
 62
1
 10
-7.800
 20
-5.000
 30
0.0
 11
-7.800
 21
-6.000
 31
0.0
  0
LINE
  8
Shafts_Ducts
 62
1
 10
-7.800
 20
-6.000
 30
0.0
 11
-6.800
 21
-5.000
 31
0.0
  0
LINE
  8
Shafts_Ducts
 62
1
 10
-7.800
 20
-5.000
 30
0.0
 11
-6.800
 21
-6.000
 31
0.0
  0
TEXT
  8
Shafts_Ducts
 62
1
 10
-7.700
 20
-5.600
 30
0.0
 40
0.180
  1
P-SHAFT
  0
LINE
  8
Shafts_Ducts
 62
1
 10
7.800
 20
5.000
 30
0.0
 11
8.800
 21
5.000
 31
0.0
  0
LINE
  8
Shafts_Ducts
 62
1
 10
8.800
 20
5.000
 30
0.0
 11
8.800
 21
6.000
 31
0.0
  0
LINE
  8
Shafts_Ducts
 62
1
 10
8.800
 20
6.000
 30
0.0
 11
7.800
 21
6.000
 31
0.0
  0
LINE
  8
Shafts_Ducts
 62
1
 10
7.800
 20
6.000
 30
0.0
 11
7.800
 21
5.000
 31
0.0
  0
LINE
  8
Shafts_Ducts
 62
1
 10
7.800
 20
5.000
 30
0.0
 11
8.800
 21
6.000
 31
0.0
  0
LINE
  8
Shafts_Ducts
 62
1
 10
7.800
 20
6.000
 30
0.0
 11
8.800
 21
5.000
 31
0.0
  0
TEXT
  8
Shafts_Ducts
 62
1
 10
7.900
 20
5.400
 30
0.0
 40
0.180
  1
P-SHAFT
  0
LINE
  8
Shafts_Ducts
 62
1
 10
7.800
 20
-6.000
 30
0.0
 11
8.800
 21
-6.000
 31
0.0
  0
LINE
  8
Shafts_Ducts
 62
1
 10
8.800
 20
-6.000
 30
0.0
 11
8.800
 21
-5.000
 31
0.0
  0
LINE
  8
Shafts_Ducts
 62
1
 10
8.800
 20
-5.000
 30
0.0
 11
7.800
 21
-5.000
 31
0.0
  0
LINE
  8
Shafts_Ducts
 62
1
 10
7.800
 20
-5.000
 30
0.0
 11
7.800
 21
-6.000
 31
0.0
  0
LINE
  8
Shafts_Ducts
 62
1
 10
7.800
 20
-6.000
 30
0.0
 11
8.800
 21
-5.000
 31
0.0
  0
LINE
  8
Shafts_Ducts
 62
1
 10
7.800
 20
-5.000
 30
0.0
 11
8.800
 21
-6.000
 31
0.0
  0
TEXT
  8
Shafts_Ducts
 62
1
 10
7.900
 20
-5.600
 30
0.0
 40
0.180
  1
P-SHAFT
  0
LINE
  8
Walls_Exterior
 62
7
 10
-14.800
 20
2.000
 30
0.0
 11
-4.800
 21
2.000
 31
0.0
  0
LINE
  8
Walls_Exterior
 62
7
 10
-4.800
 20
2.000
 30
0.0
 11
-4.800
 21
14.000
 31
0.0
  0
LINE
  8
Walls_Exterior
 62
7
 10
-4.800
 20
14.000
 30
0.0
 11
-14.800
 21
14.000
 31
0.0
  0
LINE
  8
Walls_Exterior
 62
7
 10
-14.800
 20
14.000
 30
0.0
 11
-14.800
 21
2.000
 31
0.0
  0
TEXT
  8
Room_Labels
 62
2
 10
-14.300
 20
13.200
 30
0.0
 40
0.320
  1
FLAT A - 2 BHK (1200 SQ FT)
  0
LINE
  8
Doors_Windows
 62
4
 10
-4.800
 20
5.800
 30
0.0
 11
-5.507
 21
6.507
 31
0.0
  0
LINE
  8
Walls_Interior
 62
8
 10
-7.800
 20
5.000
 30
0.0
 11
-7.800
 21
6.500
 31
0.0
  0
LINE
  8
Walls_Interior
 62
8
 10
-7.800
 20
6.500
 30
0.0
 11
-4.800
 21
6.500
 31
0.0
  0
LINE
  8
Walls_Interior
 62
8
 10
-7.800
 20
5.000
 30
0.0
 11
-4.800
 21
5.000
 31
0.0
  0
TEXT
  8
Room_Labels
 62
2
 10
-6.800
 20
5.600
 30
0.0
 40
0.200
  1
FOYER
  0
LINE
  8
Walls_Interior
 62
8
 10
-10.800
 20
6.500
 30
0.0
 11
-10.800
 21
11.000
 31
0.0
  0
LINE
  8
Walls_Interior
 62
8
 10
-10.800
 20
11.000
 30
0.0
 11
-4.800
 21
11.000
 31
0.0
  0
TEXT
  8
Room_Labels
 62
2
 10
-9.000
 20
9.000
 30
0.0
 40
0.280
  1
LIVING ROOM
  0
TEXT
  8
Dimensions
 62
1
 10
-9.000
 20
8.500
 30
0.0
 40
0.200
  1
6.0m x 4.5m
  0
LINE
  8
Balconies
 62
3
 10
-10.800
 20
11.000
 30
0.0
 11
-7.800
 21
11.000
 31
0.0
  0
LINE
  8
Balconies
 62
3
 10
-7.800
 20
11.000
 30
0.0
 11
-7.800
 21
13.000
 31
0.0
  0
LINE
  8
Balconies
 62
3
 10
-7.800
 20
13.000
 30
0.0
 11
-10.800
 21
13.000
 31
0.0
  0
LINE
  8
Balconies
 62
3
 10
-10.800
 20
13.000
 30
0.0
 11
-10.800
 21
11.000
 31
0.0
  0
LINE
  8
Balconies
 62
3
 10
-10.050
 20
11.000
 30
0.0
 11
-10.050
 21
13.000
 31
0.0
  0
LINE
  8
Balconies
 62
3
 10
-9.300
 20
11.000
 30
0.0
 11
-9.300
 21
13.000
 31
0.0
  0
LINE
  8
Balconies
 62
3
 10
-8.550
 20
11.000
 30
0.0
 11
-8.550
 21
13.000
 31
0.0
  0
TEXT
  8
Room_Labels
 62
3
 10
-10.000
 20
11.800
 30
0.0
 40
0.200
  1
BALCONY
  0
LINE
  8
Doors_Windows
 62
4
 10
-10.000
 20
11.000
 30
0.0
 11
-8.600
 21
11.000
 31
0.0
  0
LINE
  8
Doors_Windows
 62
4
 10
-10.000
 20
11.080
 30
0.0
 11
-8.600
 21
11.080
 31
0.0
  0
LINE
  8
Walls_Interior
 62
8
 10
-14.800
 20
10.000
 30
0.0
 11
-10.800
 21
10.000
 31
0.0
  0
TEXT
  8
Room_Labels
 62
2
 10
-13.500
 20
8.000
 30
0.0
 40
0.250
  1
DINING AREA
  0
TEXT
  8
Dimensions
 62
1
 10
-13.500
 20
7.500
 30
0.0
 40
0.200
  1
4.0m x 3.5m
  0
LINE
  8
Walls_Interior
 62
8
 10
-14.800
 20
14.000
 30
0.0
 11
-10.800
 21
14.000
 31
0.0
  0
TEXT
  8
Room_Labels
 62
2
 10
-13.500
 20
12.000
 30
0.0
 40
0.250
  1
KITCHEN
  0
TEXT
  8
Dimensions
 62
1
 10
-13.500
 20
11.500
 30
0.0
 40
0.200
  1
4.0m x 4.0m
  0
LINE
  8
Doors_Windows
 62
4
 10
-13.000
 20
14.000
 30
0.0
 11
-11.500
 21
14.000
 31
0.0
  0
LINE
  8
Doors_Windows
 62
4
 10
-13.000
 20
14.080
 30
0.0
 11
-11.500
 21
14.080
 31
0.0
  0
LINE
  8
Doors_Windows
 62
4
 10
-10.800
 20
10.200
 30
0.0
 11
-11.436
 21
10.836
 31
0.0
  0
LINE
  8
Balconies
 62
3
 10
-16.800
 20
11.000
 30
0.0
 11
-14.800
 21
11.000
 31
0.0
  0
LINE
  8
Balconies
 62
3
 10
-14.800
 20
11.000
 30
0.0
 11
-14.800
 21
13.000
 31
0.0
  0
LINE
  8
Balconies
 62
3
 10
-14.800
 20
13.000
 30
0.0
 11
-16.800
 21
13.000
 31
0.0
  0
LINE
  8
Balconies
 62
3
 10
-16.800
 20
13.000
 30
0.0
 11
-16.800
 21
11.000
 31
0.0
  0
LINE
  8
Balconies
 62
3
 10
-16.300
 20
11.000
 30
0.0
 11
-16.300
 21
13.000
 31
0.0
  0
LINE
  8
Balconies
 62
3
 10
-15.800
 20
11.000
 30
0.0
 11
-15.800
 21
13.000
 31
0.0
  0
LINE
  8
Balconies
 62
3
 10
-15.300
 20
11.000
 30
0.0
 11
-15.300
 21
13.000
 31
0.0
  0
TEXT
  8
Room_Labels
 62
3
 10
-16.500
 20
11.800
 30
0.0
 40
0.200
  1
UTILITY
  0
LINE
  8
Doors_Windows
 62
4
 10
-14.800
 20
12.000
 30
0.0
 11
-15.401
 21
12.601
 31
0.0
  0
LINE
  8
Walls_Interior
 62
8
 10
-10.800
 20
2.000
 30
0.0
 11
-10.800
 21
6.500
 31
0.0
  0
TEXT
  8
Room_Labels
 62
2
 10
-13.800
 20
4.500
 30
0.0
 40
0.250
  1
MASTER BEDROOM
  0
TEXT
  8
Dimensions
 62
1
 10
-13.800
 20
4.000
 30
0.0
 40
0.200
  1
4.0m x 4.5m
  0
LINE
  8
Doors_Windows
 62
4
 10
-13.500
 20
2.000
 30
0.0
 11
-12.000
 21
2.000
 31
0.0
  0
LINE
  8
Doors_Windows
 62
4
 10
-13.500
 20
2.080
 30
0.0
 11
-12.000
 21
2.080
 31
0.0
  0
LINE
  8
Doors_Windows
 62
4
 10
-10.800
 20
5.500
 30
0.0
 11
-10.164
 21
6.136
 31
0.0
  0
LINE
  8
Walls_Interior
 62
8
 10
-7.800
 20
2.000
 30
0.0
 11
-7.800
 21
5.000
 31
0.0
  0
LINE
  8
Walls_Interior
 62
8
 10
-10.800
 20
5.000
 30
0.0
 11
-7.800
 21
5.000
 31
0.0
  0
TEXT
  8
Room_Labels
 62
2
 10
-9.800
 20
3.500
 30
0.0
 40
0.200
  1
ATH BATH
  0
LINE
  8
Doors_Windows
 62
4
 10
-10.800
 20
3.500
 30
0.0
 11
-11.366
 21
4.066
 31
0.0
  0
LINE
  8
Walls_Interior
 62
8
 10
-7.800
 20
5.000
 30
0.0
 11
-4.800
 21
5.000
 31
0.0
  0
TEXT
  8
Room_Labels
 62
2
 10
-7.000
 20
3.500
 30
0.0
 40
0.250
  1
BEDROOM 2
  0
TEXT
  8
Dimensions
 62
1
 10
-7.000
 20
3.000
 30
0.0
 40
0.200
  1
3.0m x 3.0m
  0
LINE
  8
Doors_Windows
 62
4
 10
-6.500
 20
2.000
 30
0.0
 11
-5.500
 21
2.000
 31
0.0
  0
LINE
  8
Doors_Windows
 62
4
 10
-6.500
 20
2.080
 30
0.0
 11
-5.500
 21
2.080
 31
0.0
  0
LINE
  8
Doors_Windows
 62
4
 10
-7.800
 20
4.200
 30
0.0
 11
-7.164
 21
4.836
 31
0.0
  0
TEXT
  8
Room_Labels
 62
2
 10
-9.800
 20
5.800
 30
0.0
 40
0.200
  1
COMMON BATH
  0
LINE
  8
Doors_Windows
 62
4
 10
-8.500
 20
6.500
 30
0.0
 11
-7.934
 21
5.934
 31
0.0
  0
LINE
  8
Walls_Exterior
 62
7
 10
-14.800
 20
-14.000
 30
0.0
 11
-4.800
 21
-14.000
 31
0.0
  0
LINE
  8
Walls_Exterior
 62
7
 10
-4.800
 20
-14.000
 30
0.0
 11
-4.800
 21
-2.000
 31
0.0
  0
LINE
  8
Walls_Exterior
 62
7
 10
-4.800
 20
-2.000
 30
0.0
 11
-14.800
 21
-2.000
 31
0.0
  0
LINE
  8
Walls_Exterior
 62
7
 10
-14.800
 20
-2.000
 30
0.0
 11
-14.800
 21
-14.000
 31
0.0
  0
TEXT
  8
Room_Labels
 62
2
 10
-14.300
 20
-2.800
 30
0.0
 40
0.320
  1
FLAT B - 2 BHK (1200 SQ FT)
  0
LINE
  8
Doors_Windows
 62
4
 10
-4.800
 20
-5.800
 30
0.0
 11
-5.507
 21
-6.507
 31
0.0
  0
LINE
  8
Walls_Interior
 62
8
 10
-7.800
 20
-6.500
 30
0.0
 11
-7.800
 21
-5.000
 31
0.0
  0
LINE
  8
Walls_Interior
 62
8
 10
-7.800
 20
-6.500
 30
0.0
 11
-4.800
 21
-6.500
 31
0.0
  0
LINE
  8
Walls_Interior
 62
8
 10
-7.800
 20
-5.000
 30
0.0
 11
-4.800
 21
-5.000
 31
0.0
  0
TEXT
  8
Room_Labels
 62
2
 10
-6.800
 20
-5.800
 30
0.0
 40
0.200
  1
FOYER
  0
LINE
  8
Walls_Interior
 62
8
 10
-10.800
 20
-6.500
 30
0.0
 11
-10.800
 21
-11.000
 31
0.0
  0
LINE
  8
Walls_Interior
 62
8
 10
-10.800
 20
-11.000
 30
0.0
 11
-4.800
 21
-11.000
 31
0.0
  0
TEXT
  8
Room_Labels
 62
2
 10
-9.000
 20
-9.000
 30
0.0
 40
0.280
  1
LIVING ROOM
  0
TEXT
  8
Dimensions
 62
1
 10
-9.000
 20
-9.500
 30
0.0
 40
0.200
  1
6.0m x 4.5m
  0
LINE
  8
Balconies
 62
3
 10
-10.800
 20
-13.000
 30
0.0
 11
-7.800
 21
-13.000
 31
0.0
  0
LINE
  8
Balconies
 62
3
 10
-7.800
 20
-13.000
 30
0.0
 11
-7.800
 21
-11.000
 31
0.0
  0
LINE
  8
Balconies
 62
3
 10
-7.800
 20
-11.000
 30
0.0
 11
-10.800
 21
-11.000
 31
0.0
  0
LINE
  8
Balconies
 62
3
 10
-10.800
 20
-11.000
 30
0.0
 11
-10.800
 21
-13.000
 31
0.0
  0
LINE
  8
Balconies
 62
3
 10
-10.050
 20
-13.000
 30
0.0
 11
-10.050
 21
-11.000
 31
0.0
  0
LINE
  8
Balconies
 62
3
 10
-9.300
 20
-13.000
 30
0.0
 11
-9.300
 21
-11.000
 31
0.0
  0
LINE
  8
Balconies
 62
3
 10
-8.550
 20
-13.000
 30
0.0
 11
-8.550
 21
-11.000
 31
0.0
  0
TEXT
  8
Room_Labels
 62
3
 10
-10.000
 20
-12.200
 30
0.0
 40
0.200
  1
BALCONY
  0
LINE
  8
Doors_Windows
 62
4
 10
-10.000
 20
-11.000
 30
0.0
 11
-8.600
 21
-11.000
 31
0.0
  0
LINE
  8
Doors_Windows
 62
4
 10
-10.000
 20
-10.920
 30
0.0
 11
-8.600
 21
-10.920
 31
0.0
  0
LINE
  8
Walls_Interior
 62
8
 10
-14.800
 20
-10.000
 30
0.0
 11
-10.800
 21
-10.000
 31
0.0
  0
TEXT
  8
Room_Labels
 62
2
 10
-13.500
 20
-8.500
 30
0.0
 40
0.250
  1
DINING AREA
  0
TEXT
  8
Dimensions
 62
1
 10
-13.500
 20
-9.000
 30
0.0
 40
0.200
  1
4.0m x 3.5m
  0
LINE
  8
Walls_Interior
 62
8
 10
-14.800
 20
-14.000
 30
0.0
 11
-10.800
 21
-14.000
 31
0.0
  0
TEXT
  8
Room_Labels
 62
2
 10
-13.500
 20
-12.200
 30
0.0
 40
0.250
  1
KITCHEN
  0
TEXT
  8
Dimensions
 62
1
 10
-13.500
 20
-12.700
 30
0.0
 40
0.200
  1
4.0m x 4.0m
  0
LINE
  8
Doors_Windows
 62
4
 10
-13.000
 20
-14.000
 30
0.0
 11
-11.500
 21
-14.000
 31
0.0
  0
LINE
  8
Doors_Windows
 62
4
 10
-13.000
 20
-13.920
 30
0.0
 11
-11.500
 21
-13.920
 31
0.0
  0
LINE
  8
Doors_Windows
 62
4
 10
-10.800
 20
-10.200
 30
0.0
 11
-10.164
 21
-10.836
 31
0.0
  0
LINE
  8
Balconies
 62
3
 10
-16.800
 20
-13.000
 30
0.0
 11
-14.800
 21
-13.000
 31
0.0
  0
LINE
  8
Balconies
 62
3
 10
-14.800
 20
-13.000
 30
0.0
 11
-14.800
 21
-11.000
 31
0.0
  0
LINE
  8
Balconies
 62
3
 10
-14.800
 20
-11.000
 30
0.0
 11
-16.800
 21
-11.000
 31
0.0
  0
LINE
  8
Balconies
 62
3
 10
-16.800
 20
-11.000
 30
0.0
 11
-16.800
 21
-13.000
 31
0.0
  0
LINE
  8
Balconies
 62
3
 10
-16.300
 20
-13.000
 30
0.0
 11
-16.300
 21
-11.000
 31
0.0
  0
LINE
  8
Balconies
 62
3
 10
-15.800
 20
-13.000
 30
0.0
 11
-15.800
 21
-11.000
 31
0.0
  0
LINE
  8
Balconies
 62
3
 10
-15.300
 20
-13.000
 30
0.0
 11
-15.300
 21
-11.000
 31
0.0
  0
TEXT
  8
Room_Labels
 62
3
 10
-16.500
 20
-12.200
 30
0.0
 40
0.200
  1
UTILITY
  0
LINE
  8
Doors_Windows
 62
4
 10
-14.800
 20
-12.000
 30
0.0
 11
-15.401
 21
-12.601
 31
0.0
  0
LINE
  8
Walls_Interior
 62
8
 10
-10.800
 20
-2.000
 30
0.0
 11
-10.800
 21
-6.500
 31
0.0
  0
TEXT
  8
Room_Labels
 62
2
 10
-13.800
 20
-4.500
 30
0.0
 40
0.250
  1
MASTER BEDROOM
  0
TEXT
  8
Dimensions
 62
1
 10
-13.800
 20
-5.000
 30
0.0
 40
0.200
  1
4.0m x 4.5m
  0
LINE
  8
Doors_Windows
 62
4
 10
-13.500
 20
-2.000
 30
0.0
 11
-12.000
 21
-2.000
 31
0.0
  0
LINE
  8
Doors_Windows
 62
4
 10
-13.500
 20
-1.920
 30
0.0
 11
-12.000
 21
-1.920
 31
0.0
  0
LINE
  8
Doors_Windows
 62
4
 10
-10.800
 20
-5.500
 30
0.0
 11
-10.164
 21
-4.864
 31
0.0
  0
LINE
  8
Walls_Interior
 62
8
 10
-7.800
 20
-2.000
 30
0.0
 11
-7.800
 21
-5.000
 31
0.0
  0
LINE
  8
Walls_Interior
 62
8
 10
-10.800
 20
-5.000
 30
0.0
 11
-7.800
 21
-5.000
 31
0.0
  0
TEXT
  8
Room_Labels
 62
2
 10
-9.800
 20
-3.800
 30
0.0
 40
0.200
  1
ATH BATH
  0
LINE
  8
Doors_Windows
 62
4
 10
-10.800
 20
-3.500
 30
0.0
 11
-10.234
 21
-4.066
 31
0.0
  0
LINE
  8
Walls_Interior
 62
8
 10
-7.800
 20
-5.000
 30
0.0
 11
-4.800
 21
-5.000
 31
0.0
  0
TEXT
  8
Room_Labels
 62
2
 10
-7.000
 20
-3.800
 30
0.0
 40
0.250
  1
BEDROOM 2
  0
TEXT
  8
Dimensions
 62
1
 10
-7.000
 20
-4.300
 30
0.0
 40
0.200
  1
3.0m x 3.0m
  0
LINE
  8
Doors_Windows
 62
4
 10
-6.500
 20
-2.000
 30
0.0
 11
-5.500
 21
-2.000
 31
0.0
  0
LINE
  8
Doors_Windows
 62
4
 10
-6.500
 20
-1.920
 30
0.0
 11
-5.500
 21
-1.920
 31
0.0
  0
LINE
  8
Doors_Windows
 62
4
 10
-7.800
 20
-4.200
 30
0.0
 11
-7.164
 21
-3.564
 31
0.0
  0
TEXT
  8
Room_Labels
 62
2
 10
-9.800
 20
-5.800
 30
0.0
 40
0.200
  1
COMMON BATH
  0
LINE
  8
Doors_Windows
 62
4
 10
-8.500
 20
-6.500
 30
0.0
 11
-9.066
 21
-5.934
 31
0.0
  0
LINE
  8
Walls_Exterior
 62
7
 10
4.800
 20
2.000
 30
0.0
 11
16.800
 21
2.000
 31
0.0
  0
LINE
  8
Walls_Exterior
 62
7
 10
16.800
 20
2.000
 30
0.0
 11
16.800
 21
16.000
 31
0.0
  0
LINE
  8
Walls_Exterior
 62
7
 10
16.800
 20
16.000
 30
0.0
 11
4.800
 21
16.000
 31
0.0
  0
LINE
  8
Walls_Exterior
 62
7
 10
4.800
 20
16.000
 30
0.0
 11
4.800
 21
2.000
 31
0.0
  0
TEXT
  8
Room_Labels
 62
2
 10
5.300
 20
15.200
 30
0.0
 40
0.320
  1
FLAT C - 3 BHK (1500 SQ FT)
  0
LINE
  8
Doors_Windows
 62
4
 10
4.800
 20
5.800
 30
0.0
 11
5.507
 21
6.507
 31
0.0
  0
LINE
  8
Walls_Interior
 62
8
 10
7.800
 20
5.000
 30
0.0
 11
7.800
 21
6.500
 31
0.0
  0
LINE
  8
Walls_Interior
 62
8
 10
7.800
 20
6.500
 30
0.0
 11
4.800
 21
6.500
 31
0.0
  0
LINE
  8
Walls_Interior
 62
8
 10
7.800
 20
5.000
 30
0.0
 11
4.800
 21
5.000
 31
0.0
  0
TEXT
  8
Room_Labels
 62
2
 10
5.800
 20
5.600
 30
0.0
 40
0.200
  1
FOYER
  0
LINE
  8
Walls_Interior
 62
8
 10
11.800
 20
6.500
 30
0.0
 11
11.800
 21
11.500
 31
0.0
  0
LINE
  8
Walls_Interior
 62
8
 10
11.800
 20
11.500
 30
0.0
 11
4.800
 21
11.500
 31
0.0
  0
TEXT
  8
Room_Labels
 62
2
 10
6.000
 20
9.000
 30
0.0
 40
0.280
  1
LIVING ROOM
  0
TEXT
  8
Dimensions
 62
1
 10
6.000
 20
8.500
 30
0.0
 40
0.200
  1
7.0m x 5.0m
  0
LINE
  8
Balconies
 62
3
 10
7.800
 20
11.500
 30
0.0
 11
11.800
 21
11.500
 31
0.0
  0
LINE
  8
Balconies
 62
3
 10
11.800
 20
11.500
 30
0.0
 11
11.800
 21
13.500
 31
0.0
  0
LINE
  8
Balconies
 62
3
 10
11.800
 20
13.500
 30
0.0
 11
7.800
 21
13.500
 31
0.0
  0
LINE
  8
Balconies
 62
3
 10
7.800
 20
13.500
 30
0.0
 11
7.800
 21
11.500
 31
0.0
  0
LINE
  8
Balconies
 62
3
 10
8.800
 20
11.500
 30
0.0
 11
8.800
 21
13.500
 31
0.0
  0
LINE
  8
Balconies
 62
3
 10
9.800
 20
11.500
 30
0.0
 11
9.800
 21
13.500
 31
0.0
  0
LINE
  8
Balconies
 62
3
 10
10.800
 20
11.500
 30
0.0
 11
10.800
 21
13.500
 31
0.0
  0
TEXT
  8
Room_Labels
 62
3
 10
9.000
 20
12.200
 30
0.0
 40
0.200
  1
BALCONY
  0
LINE
  8
Doors_Windows
 62
4
 10
8.500
 20
11.500
 30
0.0
 11
11.000
 21
11.500
 31
0.0
  0
LINE
  8
Doors_Windows
 62
4
 10
8.500
 20
11.580
 30
0.0
 11
11.000
 21
11.580
 31
0.0
  0
LINE
  8
Walls_Interior
 62
8
 10
11.800
 20
10.500
 30
0.0
 11
16.800
 21
10.500
 31
0.0
  0
TEXT
  8
Room_Labels
 62
2
 10
12.800
 20
8.500
 30
0.0
 40
0.250
  1
DINING AREA
  0
TEXT
  8
Dimensions
 62
1
 10
12.800
 20
8.000
 30
0.0
 40
0.200
  1
5.0m x 4.0m
  0
LINE
  8
Walls_Interior
 62
8
 10
11.800
 20
14.500
 30
0.0
 11
16.800
 21
14.500
 31
0.0
  0
TEXT
  8
Room_Labels
 62
2
 10
12.800
 20
12.500
 30
0.0
 40
0.250
  1
KITCHEN
  0
TEXT
  8
Dimensions
 62
1
 10
12.800
 20
12.000
 30
0.0
 40
0.200
  1
5.0m x 4.0m
  0
LINE
  8
Doors_Windows
 62
4
 10
13.000
 20
14.500
 30
0.0
 11
15.000
 21
14.500
 31
0.0
  0
LINE
  8
Doors_Windows
 62
4
 10
13.000
 20
14.580
 30
0.0
 11
15.000
 21
14.580
 31
0.0
  0
LINE
  8
Doors_Windows
 62
4
 10
11.800
 20
10.800
 30
0.0
 11
12.436
 21
11.436
 31
0.0
  0
LINE
  8
Balconies
 62
3
 10
13.800
 20
14.500
 30
0.0
 11
16.800
 21
14.500
 31
0.0
  0
LINE
  8
Balconies
 62
3
 10
16.800
 20
14.500
 30
0.0
 11
16.800
 21
16.000
 31
0.0
  0
LINE
  8
Balconies
 62
3
 10
16.800
 20
16.000
 30
0.0
 11
13.800
 21
16.000
 31
0.0
  0
LINE
  8
Balconies
 62
3
 10
13.800
 20
16.000
 30
0.0
 11
13.800
 21
14.500
 31
0.0
  0
LINE
  8
Balconies
 62
3
 10
14.550
 20
14.500
 30
0.0
 11
14.550
 21
16.000
 31
0.0
  0
LINE
  8
Balconies
 62
3
 10
15.300
 20
14.500
 30
0.0
 11
15.300
 21
16.000
 31
0.0
  0
LINE
  8
Balconies
 62
3
 10
16.050
 20
14.500
 30
0.0
 11
16.050
 21
16.000
 31
0.0
  0
TEXT
  8
Room_Labels
 62
3
 10
14.500
 20
15.100
 30
0.0
 40
0.200
  1
UTILITY
  0
LINE
  8
Doors_Windows
 62
4
 10
13.800
 20
14.500
 30
0.0
 11
14.401
 21
15.101
 31
0.0
  0
LINE
  8
Walls_Interior
 62
8
 10
11.800
 20
2.000
 30
0.0
 11
11.800
 21
6.500
 31
0.0
  0
TEXT
  8
Room_Labels
 62
2
 10
12.800
 20
4.500
 30
0.0
 40
0.250
  1
MASTER BEDROOM
  0
TEXT
  8
Dimensions
 62
1
 10
12.800
 20
4.000
 30
0.0
 40
0.200
  1
5.0m x 4.5m
  0
LINE
  8
Doors_Windows
 62
4
 10
15.000
 20
2.000
 30
0.0
 11
16.500
 21
2.000
 31
0.0
  0
LINE
  8
Doors_Windows
 62
4
 10
15.000
 20
2.080
 30
0.0
 11
16.500
 21
2.080
 31
0.0
  0
LINE
  8
Doors_Windows
 62
4
 10
11.800
 20
5.500
 30
0.0
 11
11.164
 21
6.136
 31
0.0
  0
LINE
  8
Walls_Interior
 62
8
 10
8.800
 20
2.000
 30
0.0
 11
8.800
 21
5.000
 31
0.0
  0
LINE
  8
Walls_Interior
 62
8
 10
11.800
 20
5.000
 30
0.0
 11
8.800
 21
5.000
 31
0.0
  0
TEXT
  8
Room_Labels
 62
2
 10
9.500
 20
3.500
 30
0.0
 40
0.200
  1
ATH BATH
  0
LINE
  8
Doors_Windows
 62
4
 10
11.800
 20
3.500
 30
0.0
 11
12.366
 21
4.066
 31
0.0
  0
LINE
  8
Balconies
 62
3
 10
13.800
 20
0.000
 30
0.0
 11
16.800
 21
0.000
 31
0.0
  0
LINE
  8
Balconies
 62
3
 10
16.800
 20
0.000
 30
0.0
 11
16.800
 21
2.000
 31
0.0
  0
LINE
  8
Balconies
 62
3
 10
16.800
 20
2.000
 30
0.0
 11
13.800
 21
2.000
 31
0.0
  0
LINE
  8
Balconies
 62
3
 10
13.800
 20
2.000
 30
0.0
 11
13.800
 21
0.000
 31
0.0
  0
LINE
  8
Balconies
 62
3
 10
14.550
 20
0.000
 30
0.0
 11
14.550
 21
2.000
 31
0.0
  0
LINE
  8
Balconies
 62
3
 10
15.300
 20
0.000
 30
0.0
 11
15.300
 21
2.000
 31
0.0
  0
LINE
  8
Balconies
 62
3
 10
16.050
 20
0.000
 30
0.0
 11
16.050
 21
2.000
 31
0.0
  0
TEXT
  8
Room_Labels
 62
3
 10
14.200
 20
0.800
 30
0.0
 40
0.180
  1
M-BALCONY
  0
LINE
  8
Doors_Windows
 62
4
 10
14.200
 20
2.000
 30
0.0
 11
16.200
 21
2.000
 31
0.0
  0
LINE
  8
Doors_Windows
 62
4
 10
14.200
 20
2.080
 30
0.0
 11
16.200
 21
2.080
 31
0.0
  0
LINE
  8
Walls_Interior
 62
8
 10
8.800
 20
2.000
 30
0.0
 11
8.800
 21
5.000
 31
0.0
  0
LINE
  8
Walls_Interior
 62
8
 10
8.800
 20
5.000
 30
0.0
 11
4.800
 21
5.000
 31
0.0
  0
TEXT
  8
Room_Labels
 62
2
 10
5.500
 20
3.500
 30
0.0
 40
0.250
  1
BEDROOM 2
  0
TEXT
  8
Dimensions
 62
1
 10
5.500
 20
3.000
 30
0.0
 40
0.200
  1
4.0m x 3.0m
  0
LINE
  8
Doors_Windows
 62
4
 10
5.500
 20
2.000
 30
0.0
 11
7.000
 21
2.000
 31
0.0
  0
LINE
  8
Doors_Windows
 62
4
 10
5.500
 20
2.080
 30
0.0
 11
7.000
 21
2.080
 31
0.0
  0
LINE
  8
Doors_Windows
 62
4
 10
7.800
 20
4.200
 30
0.0
 11
7.164
 21
4.836
 31
0.0
  0
LINE
  8
Walls_Interior
 62
8
 10
7.800
 20
5.000
 30
0.0
 11
7.800
 21
9.000
 31
0.0
  0
LINE
  8
Walls_Interior
 62
8
 10
11.800
 20
9.000
 30
0.0
 11
7.800
 21
9.000
 31
0.0
  0
TEXT
  8
Room_Labels
 62
2
 10
8.500
 20
7.500
 30
0.0
 40
0.250
  1
BEDROOM 3
  0
TEXT
  8
Dimensions
 62
1
 10
8.500
 20
7.000
 30
0.0
 40
0.200
  1
4.0m x 4.0m
  0
LINE
  8
Doors_Windows
 62
4
 10
11.800
 20
6.000
 30
0.0
 11
11.800
 21
7.500
 31
0.0
  0
LINE
  8
Doors_Windows
 62
4
 10
11.720
 20
6.000
 30
0.0
 11
11.720
 21
7.500
 31
0.0
  0
LINE
  8
Doors_Windows
 62
4
 10
8.500
 20
6.500
 30
0.0
 11
7.864
 21
5.864
 31
0.0
  0
TEXT
  8
Room_Labels
 62
2
 10
5.500
 20
10.000
 30
0.0
 40
0.200
  1
COMMON BATH
  0
LINE
  8
Doors_Windows
 62
4
 10
7.800
 20
10.200
 30
0.0
 11
7.234
 21
10.766
 31
0.0
  0
LINE
  8
Walls_Exterior
 62
7
 10
4.800
 20
-16.000
 30
0.0
 11
16.800
 21
-16.000
 31
0.0
  0
LINE
  8
Walls_Exterior
 62
7
 10
16.800
 20
-16.000
 30
0.0
 11
16.800
 21
-2.000
 31
0.0
  0
LINE
  8
Walls_Exterior
 62
7
 10
16.800
 20
-2.000
 30
0.0
 11
4.800
 21
-2.000
 31
0.0
  0
LINE
  8
Walls_Exterior
 62
7
 10
4.800
 20
-2.000
 30
0.0
 11
4.800
 21
-16.000
 31
0.0
  0
TEXT
  8
Room_Labels
 62
2
 10
5.300
 20
-2.800
 30
0.0
 40
0.320
  1
FLAT D - 3 BHK (1500 SQ FT)
  0
LINE
  8
Doors_Windows
 62
4
 10
4.800
 20
-5.800
 30
0.0
 11
5.507
 21
-6.507
 31
0.0
  0
LINE
  8
Walls_Interior
 62
8
 10
7.800
 20
-6.500
 30
0.0
 11
7.800
 21
-5.000
 31
0.0
  0
LINE
  8
Walls_Interior
 62
8
 10
7.800
 20
-6.500
 30
0.0
 11
4.800
 21
-6.500
 31
0.0
  0
LINE
  8
Walls_Interior
 62
8
 10
7.800
 20
-5.000
 30
0.0
 11
4.800
 21
-5.000
 31
0.0
  0
TEXT
  8
Room_Labels
 62
2
 10
5.800
 20
-5.800
 30
0.0
 40
0.200
  1
FOYER
  0
LINE
  8
Walls_Interior
 62
8
 10
11.800
 20
-6.500
 30
0.0
 11
11.800
 21
-11.500
 31
0.0
  0
LINE
  8
Walls_Interior
 62
8
 10
11.800
 20
-11.500
 30
0.0
 11
4.800
 21
-11.500
 31
0.0
  0
TEXT
  8
Room_Labels
 62
2
 10
6.000
 20
-9.000
 30
0.0
 40
0.280
  1
LIVING ROOM
  0
TEXT
  8
Dimensions
 62
1
 10
6.000
 20
-9.500
 30
0.0
 40
0.200
  1
7.0m x 5.0m
  0
LINE
  8
Balconies
 62
3
 10
7.800
 20
-13.500
 30
0.0
 11
11.800
 21
-13.500
 31
0.0
  0
LINE
  8
Balconies
 62
3
 10
11.800
 20
-13.500
 30
0.0
 11
11.800
 21
-11.500
 31
0.0
  0
LINE
  8
Balconies
 62
3
 10
11.800
 20
-11.500
 30
0.0
 11
7.800
 21
-11.500
 31
0.0
  0
LINE
  8
Balconies
 62
3
 10
7.800
 20
-11.500
 30
0.0
 11
7.800
 21
-13.500
 31
0.0
  0
LINE
  8
Balconies
 62
3
 10
8.800
 20
-13.500
 30
0.0
 11
8.800
 21
-11.500
 31
0.0
  0
LINE
  8
Balconies
 62
3
 10
9.800
 20
-13.500
 30
0.0
 11
9.800
 21
-11.500
 31
0.0
  0
LINE
  8
Balconies
 62
3
 10
10.800
 20
-13.500
 30
0.0
 11
10.800
 21
-11.500
 31
0.0
  0
TEXT
  8
Room_Labels
 62
3
 10
9.000
 20
-12.700
 30
0.0
 40
0.200
  1
BALCONY
  0
LINE
  8
Doors_Windows
 62
4
 10
8.500
 20
-11.500
 30
0.0
 11
11.000
 21
-11.500
 31
0.0
  0
LINE
  8
Doors_Windows
 62
4
 10
8.500
 20
-11.420
 30
0.0
 11
11.000
 21
-11.420
 31
0.0
  0
LINE
  8
Walls_Interior
 62
8
 10
11.800
 20
-10.500
 30
0.0
 11
16.800
 21
-10.500
 31
0.0
  0
TEXT
  8
Room_Labels
 62
2
 10
12.800
 20
-8.500
 30
0.0
 40
0.250
  1
DINING AREA
  0
TEXT
  8
Dimensions
 62
1
 10
12.800
 20
-9.000
 30
0.0
 40
0.200
  1
5.0m x 4.0m
  0
LINE
  8
Walls_Interior
 62
8
 10
11.800
 20
-14.500
 30
0.0
 11
16.800
 21
-14.500
 31
0.0
  0
TEXT
  8
Room_Labels
 62
2
 10
12.800
 20
-12.500
 30
0.0
 40
0.250
  1
KITCHEN
  0
TEXT
  8
Dimensions
 62
1
 10
12.800
 20
-13.000
 30
0.0
 40
0.200
  1
5.0m x 4.0m
  0
LINE
  8
Doors_Windows
 62
4
 10
13.000
 20
-14.500
 30
0.0
 11
15.000
 21
-14.500
 31
0.0
  0
LINE
  8
Doors_Windows
 62
4
 10
13.000
 20
-14.420
 30
0.0
 11
15.000
 21
-14.420
 31
0.0
  0
LINE
  8
Doors_Windows
 62
4
 10
11.800
 20
-10.800
 30
0.0
 11
11.164
 21
-11.436
 31
0.0
  0
LINE
  8
Balconies
 62
3
 10
13.800
 20
-16.000
 30
0.0
 11
16.800
 21
-16.000
 31
0.0
  0
LINE
  8
Balconies
 62
3
 10
16.800
 20
-16.000
 30
0.0
 11
16.800
 21
-14.500
 31
0.0
  0
LINE
  8
Balconies
 62
3
 10
16.800
 20
-14.500
 30
0.0
 11
13.800
 21
-14.500
 31
0.0
  0
LINE
  8
Balconies
 62
3
 10
13.800
 20
-14.500
 30
0.0
 11
13.800
 21
-16.000
 31
0.0
  0
LINE
  8
Balconies
 62
3
 10
14.550
 20
-16.000
 30
0.0
 11
14.550
 21
-14.500
 31
0.0
  0
LINE
  8
Balconies
 62
3
 10
15.300
 20
-16.000
 30
0.0
 11
15.300
 21
-14.500
 31
0.0
  0
LINE
  8
Balconies
 62
3
 10
16.050
 20
-16.000
 30
0.0
 11
16.050
 21
-14.500
 31
0.0
  0
TEXT
  8
Room_Labels
 62
3
 10
14.500
 20
-15.400
 30
0.0
 40
0.200
  1
UTILITY
  0
LINE
  8
Doors_Windows
 62
4
 10
13.800
 20
-14.500
 30
0.0
 11
13.199
 21
-15.101
 31
0.0
  0
LINE
  8
Walls_Interior
 62
8
 10
11.800
 20
-2.000
 30
0.0
 11
11.800
 21
-6.500
 31
0.0
  0
TEXT
  8
Room_Labels
 62
2
 10
12.800
 20
-4.500
 30
0.0
 40
0.250
  1
MASTER BEDROOM
  0
TEXT
  8
Dimensions
 62
1
 10
12.800
 20
-5.000
 30
0.0
 40
0.200
  1
5.0m x 4.5m
  0
LINE
  8
Doors_Windows
 62
4
 10
15.000
 20
-2.000
 30
0.0
 11
16.500
 21
-2.000
 31
0.0
  0
LINE
  8
Doors_Windows
 62
4
 10
15.000
 20
-1.920
 30
0.0
 11
16.500
 21
-1.920
 31
0.0
  0
LINE
  8
Doors_Windows
 62
4
 10
11.800
 20
-5.500
 30
0.0
 11
11.164
 21
-6.136
 31
0.0
  0
LINE
  8
Walls_Interior
 62
8
 10
8.800
 20
-2.000
 30
0.0
 11
8.800
 21
-5.000
 31
0.0
  0
LINE
  8
Walls_Interior
 62
8
 10
11.800
 20
-5.000
 30
0.0
 11
8.800
 21
-5.000
 31
0.0
  0
TEXT
  8
Room_Labels
 62
2
 10
9.500
 20
-3.800
 30
0.0
 40
0.200
  1
ATH BATH
  0
LINE
  8
Doors_Windows
 62
4
 10
11.800
 20
-3.500
 30
0.0
 11
11.234
 21
-4.066
 31
0.0
  0
LINE
  8
Balconies
 62
3
 10
13.800
 20
-2.000
 30
0.0
 11
16.800
 21
-2.000
 31
0.0
  0
LINE
  8
Balconies
 62
3
 10
16.800
 20
-2.000
 30
0.0
 11
16.800
 21
0.000
 31
0.0
  0
LINE
  8
Balconies
 62
3
 10
16.800
 20
0.000
 30
0.0
 11
13.800
 21
0.000
 31
0.0
  0
LINE
  8
Balconies
 62
3
 10
13.800
 20
0.000
 30
0.0
 11
13.800
 21
-2.000
 31
0.0
  0
LINE
  8
Balconies
 62
3
 10
14.550
 20
-2.000
 30
0.0
 11
14.550
 21
0.000
 31
0.0
  0
LINE
  8
Balconies
 62
3
 10
15.300
 20
-2.000
 30
0.0
 11
15.300
 21
0.000
 31
0.0
  0
LINE
  8
Balconies
 62
3
 10
16.050
 20
-2.000
 30
0.0
 11
16.050
 21
0.000
 31
0.0
  0
TEXT
  8
Room_Labels
 62
3
 10
14.200
 20
-1.200
 30
0.0
 40
0.180
  1
M-BALCONY
  0
LINE
  8
Doors_Windows
 62
4
 10
14.200
 20
-2.000
 30
0.0
 11
16.200
 21
-2.000
 31
0.0
  0
LINE
  8
Doors_Windows
 62
4
 10
14.200
 20
-1.920
 30
0.0
 11
16.200
 21
-1.920
 31
0.0
  0
LINE
  8
Walls_Interior
 62
8
 10
8.800
 20
-2.000
 30
0.0
 11
8.800
 21
-5.000
 31
0.0
  0
LINE
  8
Walls_Interior
 62
8
 10
8.800
 20
-5.000
 30
0.0
 11
4.800
 21
-5.000
 31
0.0
  0
TEXT
  8
Room_Labels
 62
2
 10
5.500
 20
-3.800
 30
0.0
 40
0.250
  1
BEDROOM 2
  0
TEXT
  8
Dimensions
 62
1
 10
5.500
 20
-4.300
 30
0.0
 40
0.200
  1
4.0m x 3.0m
  0
LINE
  8
Doors_Windows
 62
4
 10
5.500
 20
-2.000
 30
0.0
 11
7.000
 21
-2.000
 31
0.0
  0
LINE
  8
Doors_Windows
 62
4
 10
5.500
 20
-1.920
 30
0.0
 11
7.000
 21
-1.920
 31
0.0
  0
LINE
  8
Doors_Windows
 62
4
 10
7.800
 20
-4.200
 30
0.0
 11
7.164
 21
-4.836
 31
0.0
  0
LINE
  8
Walls_Interior
 62
8
 10
7.800
 20
-5.000
 30
0.0
 11
7.800
 21
-9.000
 31
0.0
  0
LINE
  8
Walls_Interior
 62
8
 10
11.800
 20
-9.000
 30
0.0
 11
7.800
 21
-9.000
 31
0.0
  0
TEXT
  8
Room_Labels
 62
2
 10
8.500
 20
-7.500
 30
0.0
 40
0.250
  1
BEDROOM 3
  0
TEXT
  8
Dimensions
 62
1
 10
8.500
 20
-8.000
 30
0.0
 40
0.200
  1
4.0m x 4.0m
  0
LINE
  8
Doors_Windows
 62
4
 10
11.800
 20
-7.500
 30
0.0
 11
11.800
 21
-6.000
 31
0.0
  0
LINE
  8
Doors_Windows
 62
4
 10
11.720
 20
-7.500
 30
0.0
 11
11.720
 21
-6.000
 31
0.0
  0
LINE
  8
Doors_Windows
 62
4
 10
8.500
 20
-6.500
 30
0.0
 11
9.136
 21
-5.864
 31
0.0
  0
TEXT
  8
Room_Labels
 62
2
 10
5.500
 20
-10.000
 30
0.0
 40
0.200
  1
COMMON BATH
  0
LINE
  8
Doors_Windows
 62
4
 10
7.800
 20
-10.200
 30
0.0
 11
7.234
 21
-10.766
 31
0.0
  0
ENDSEC
  0
EOF
